# xmcd
#
# Track frame offsets: 
#        150
#        19238
#        36608
#        59313
#        78963
#        95982
#        117850
#        138129
#        156939
#        163953
#        183942
#        204675
#
# Disc length: 2963 seconds
#
# Revision: 0
# Processed by: cddbd v1.5.2PL0 Copyright (c) Steve Scherf et al.
# Submitted via: ExactAudioCopy v0.95b4
#
DISCID=a90b910c
DTITLE=Ugly Duckling - Audacity
DYEAR=2009
DGENRE=Hip-Hop
TTITLE0=I Won't Let It Die
TTITLE1=The Takedown
TTITLE2=Audacity (parts one and two)
TTITLE3=Falling Again
TTITLE4=It's Gone
TTITLE5=I Want to Believe
TTITLE6=Einstein Do It (Night on Scratch Mountain)
TTITLE7=The Lonely Ones
TTITLE8=Pay or Quit
TTITLE9=Right Now
TTITLE10=It Never Mattered
TTITLE11=Oh Yeah
EXTD=
EXTT0=
EXTT1=
EXTT2=
EXTT3=
EXTT4=
EXTT5=
EXTT6=
EXTT7=
EXTT8=
EXTT9=
EXTT10=
EXTT11=
PLAYORDER=
